<svg width="273" height="375" viewBox="0 0 273 375" fill="none" xmlns="http://www.w3.org/2000/svg">
<g clip-path="url(#clip0_25_31)">
<path d="M223.523 77.4151C249.425 100.236 264.787 132.436 266.732 166.574C268.14 198.275 258.273 230.551 236.908 254.641C236.179 255.466 235.45 256.29 234.699 257.14C231.269 260.951 227.778 264.631 224.047 268.156C205.426 286.338 195.338 309.527 192.172 334.879C192.077 335.62 191.982 336.361 191.884 337.125C191.645 338.985 191.411 340.846 191.178 342.707C187.897 342.061 184.616 341.415 181.236 340.75C181.327 304.072 200.504 276.747 225.429 251.158C245.474 230.152 255.285 202.106 255.051 173.546C255.043 172.335 255.035 171.123 255.027 169.875C254.636 138.573 241.962 111.698 220.008 89.2715C219.417 88.6282 218.826 87.9849 218.218 87.3221C200.342 68.3741 169.942 56.9707 144.216 55.9102C138.662 55.8179 133.106 55.8976 127.553 56.002C126.565 56.0184 125.577 56.0347 124.559 56.0516C95.7065 57.612 66.4788 73.8675 47.3768 94.6003C36.3445 107.087 26.7478 122.178 22.1738 138.197C21.806 139.414 21.4382 140.632 21.0593 141.886C18.2851 152.08 17.7989 162.196 17.7623 172.69C17.7533 173.671 17.7533 173.671 17.744 174.673C17.6674 187.352 19.6392 199.443 23.7893 211.464C24.0402 212.191 24.291 212.918 24.5495 213.668C30.9513 231.42 41.319 245.409 54.8674 258.467C71.7121 274.746 82.9504 293.874 88.7813 316.287C89.1311 317.358 89.481 318.429 89.8414 319.532C90.9528 323.848 91.2167 327.938 91.3909 332.371C91.4293 333.181 91.4678 333.99 91.5074 334.823C91.6002 336.799 91.683 338.774 91.7637 340.75C88.483 341.396 85.2023 342.042 81.8223 342.707C81.6646 341.335 81.507 339.962 81.3446 338.548C79.1558 320.578 74.8245 305.706 65.916 289.867C65.3752 288.901 64.8344 287.935 64.2772 286.939C58.4213 277.239 50.2126 269.379 41.9945 261.613C18.6796 238.738 6.73596 206.527 6.08118 174.463C6.46821 141.968 16.9561 111.008 40.0684 87.3145C41.1711 86.0139 42.269 84.7094 43.3615 83.4004C62.7265 61.7838 94.3634 47.5713 123.389 45.3644C160.927 43.1876 194.926 52.8658 223.523 77.4151Z" fill="#1a6c76"/>
<path d="M131.626 92.2338C133.647 93.2509 135.238 93.8832 137.494 94.1641C139.566 93.4804 139.566 93.4804 141.533 92.3293C148.32 88.662 155.169 88.3055 162.783 89.7225C173.227 92.8433 180.366 98.7276 187.201 106.885C189.699 109.773 192.394 110.922 195.9 112.45C206.779 117.727 211.529 126.423 215.849 137.307C219.581 149.457 216.66 162.402 211.061 173.424C211.527 176.392 212.732 178.777 214.105 181.435C217.139 188.14 216.699 193.511 214.54 200.455C212.374 205.857 209.196 209.595 204.102 212.564C201.364 213.23 201.364 213.23 199.131 213.543C199.459 214.512 199.787 215.48 200.125 216.479C200.896 223.953 200.109 230.511 196.148 237.027C192.585 241.053 188.265 243.87 183.225 245.834C182.076 245.895 180.928 245.955 179.745 246.017C175.185 247.059 174.406 248.923 171.897 252.611C168.574 256.837 163.69 259.545 158.371 260.512C152.057 261 146.955 261.077 141.471 257.576C141.105 248.28 141.471 249.826 141.471 245.834C142.393 246.48 143.316 247.126 144.267 247.791C149.115 250.497 153.936 250.66 159.365 249.748C164.231 246.962 166.325 243.578 168.549 238.663C169.307 237.027 169.307 237.027 170.301 236.049C172.184 235.945 174.07 235.868 175.955 235.804C181.774 235.381 184.35 234.475 188.195 230.178C189.212 227.177 189.354 225.005 189.376 221.86C189.39 220.922 189.404 219.983 189.419 219.017C189.376 216.246 189.376 216.246 187.201 213.543C186.953 210.546 186.953 210.546 187.201 207.672C189.49 205.419 190.373 205.362 193.477 204.859C197.608 204.015 200.144 202.937 203.107 199.844C205.47 195.858 205.682 191.638 205.096 187.123C203.764 183.716 202.61 181.7 199.876 179.234C198.137 177.338 198.137 177.338 198.075 175.136C199.288 172.044 200.927 169.535 202.855 166.826C207.276 158.991 207.222 149.089 205.593 140.456C203.257 132.944 199.049 125.808 192.172 121.562C190.623 120.881 189.069 120.209 187.512 119.544C182.929 117.428 180.006 114.533 176.763 110.799C171.55 104.875 166.695 100.781 158.616 99.6529C151.932 99.3967 148.278 100.737 141.471 102.971C141.471 149.47 141.471 209.668 141.471 257.576C142.977 258.564 139.994 256.607 141.471 257.576C139.174 257.899 133.895 257.243 131.529 257.576C131.529 211.4 131.529 150.546 131.529 102.971C122.241 99.9234 115.504 97.9457 106.427 102.053C100.609 105.266 96.4266 109.462 92.5714 114.774C90.1804 117.739 87.3271 118.94 83.8727 120.523C75.6441 124.349 71.1442 129.857 67.9043 138.197C65.2934 148.271 66.0025 159.289 70.8867 168.531C71.6454 169.439 72.404 170.348 73.1857 171.283C74.8633 173.424 74.8633 173.424 74.9254 176.359C73.6318 179.955 71.7518 181.66 68.8985 184.187C67.0532 187.82 67.4588 191.965 67.9043 195.93C70.0761 200.284 72.3367 202.773 76.8516 204.736C79.168 205.084 81.4875 205.413 83.8106 205.715C85.7988 207.672 85.7988 207.672 86.0474 210.546C85.7988 213.543 85.7988 213.543 83.8106 216.479C83.2355 221.227 83.1741 225.739 85.0532 230.178C87.6014 233.044 89.4821 234.893 93.4102 235.433C94.3432 235.455 95.2761 235.476 96.2373 235.498C101.406 235.85 101.406 235.85 104.19 237.7C105.682 239.963 105.682 239.963 107.111 242.898C108.968 246.409 110.081 247.853 113.635 249.748C120.737 250.809 125.706 249.91 131.529 245.834C131.529 249.709 131.529 253.584 131.529 257.576C125.547 261.396 119.233 261.459 112.4 260.053C107.332 258.423 103.326 255.547 99.7168 251.705C99.2862 250.817 98.8556 249.929 98.412 249.014C96.3144 246.261 95.4416 246.404 92.0744 245.895C85.0442 244.814 80.78 241.447 76.4788 235.988C73.7995 231.22 72.6117 227.719 72.6886 222.227C72.695 221.216 72.7014 220.204 72.708 219.162C72.875 216.479 72.875 216.479 73.8692 213.543C73.1323 213.44 72.3954 213.336 71.6362 213.23C66.9497 212.091 64.0131 209.295 60.9453 205.715C57.679 199.768 55.5265 192.893 56.9688 186.145C58.1495 183.508 59.4542 181.049 60.9492 178.572C62.1523 175.884 62.0086 175.147 60.9453 172.445C60.359 171.045 60.359 171.045 59.7609 169.617C54.7179 157.455 53.7292 144.734 58.9571 132.326C64.5737 120.743 71.6819 113.657 83.8106 108.842C84.4667 108.842 85.1228 108.842 85.7988 108.842C85.9834 108.176 86.1679 107.51 86.3581 106.824C90.7024 98.0855 99.7231 93.5076 108.61 90.1086C116.509 87.9312 124.395 88.4221 131.626 92.2338Z" fill="#059669"/>
<path d="M131.626 92.2338C133.647 93.2509 135.238 93.8832 137.494 94.1641C139.566 93.4804 139.566 93.4804 141.533 92.3293C148.32 88.662 155.169 88.3055 162.783 89.7225C173.227 92.8433 180.366 98.7276 187.201 106.885C189.699 109.773 192.394 110.922 195.9 112.45C206.779 117.727 211.529 126.423 215.849 137.307C219.581 149.457 216.66 162.402 211.061 173.424C211.527 176.392 212.732 178.777 214.105 181.435C217.139 188.14 216.699 193.511 214.54 200.455C212.374 205.857 209.196 209.595 204.102 212.564C201.364 213.23 201.364 213.23 199.131 213.543C199.459 214.512 199.787 215.48 200.125 216.479C200.896 223.953 200.109 230.511 196.148 237.027C192.585 241.053 188.265 243.87 183.225 245.834C182.076 245.895 180.928 245.955 179.745 246.017C175.185 247.059 174.406 248.923 171.897 252.611C168.574 256.837 163.69 259.545 158.371 260.512C152.057 261 146.955 261.077 141.471 257.576C141.105 248.28 141.471 249.826 141.471 245.834C142.393 246.48 143.316 247.126 144.267 247.791C149.115 250.497 153.936 250.66 159.365 249.748C164.231 246.962 166.325 243.578 168.549 238.663C169.307 237.027 169.307 237.027 170.301 236.049C172.184 235.945 174.07 235.868 175.955 235.804C181.774 235.381 184.35 234.475 188.195 230.178C189.212 227.177 189.354 225.005 189.376 221.86C189.39 220.922 189.404 219.983 189.419 219.017C189.376 216.246 189.376 216.246 187.201 213.543C186.953 210.546 186.953 210.546 187.201 207.672C189.49 205.419 190.373 205.362 193.477 204.859C197.608 204.015 200.144 202.937 203.107 199.844C205.47 195.858 205.682 191.638 205.096 187.123C203.764 183.716 202.61 181.7 199.876 179.234C198.137 177.338 198.137 177.338 198.075 175.136C199.288 172.044 200.927 169.535 202.855 166.826C207.276 158.991 207.222 149.089 205.593 140.456C203.257 132.944 199.049 125.808 192.172 121.562C190.623 120.881 189.069 120.209 187.512 119.544C182.929 117.428 180.006 114.533 176.763 110.799C171.55 104.875 166.695 100.781 158.616 99.6529C151.932 99.3967 148.278 100.737 141.471 102.971C141.471 149.47 141.471 209.668 141.471 257.576C142.977 258.564 139.994 256.607 141.471 257.576C139.174 257.899 133.895 257.243 131.529 257.576C131.529 211.4 131.529 150.546 131.529 102.971C122.241 99.9234 115.504 97.9457 106.427 102.053C100.609 105.266 96.4266 109.462 92.5714 114.774C90.1804 117.739 87.3271 118.94 83.8727 120.523C75.6441 124.349 71.1442 129.857 67.9043 138.197C65.2934 148.271 66.0025 159.289 70.8867 168.531C71.6454 169.439 72.404 170.348 73.1857 171.283C74.8633 173.424 74.8633 173.424 74.9254 176.359C73.6318 179.955 71.7518 181.66 68.8985 184.187C67.0532 187.82 67.4588 191.965 67.9043 195.93C70.0761 200.284 72.3367 202.773 76.8516 204.736C79.168 205.084 81.4875 205.413 83.8106 205.715C85.7988 207.672 85.7988 207.672 86.0474 210.546C85.7988 213.543 85.7988 213.543 83.8106 216.479C83.2355 221.227 83.1741 225.739 85.0532 230.178C87.6014 233.044 89.4821 234.893 93.4102 235.433C94.3432 235.455 95.2761 235.476 96.2373 235.498C101.406 235.85 101.406 235.85 104.19 237.7C105.682 239.963 105.682 239.963 107.111 242.898C108.968 246.409 110.081 247.853 113.635 249.748C120.737 250.809 125.706 249.91 131.529 245.834C131.529 249.709 131.529 253.584 131.529 257.576C125.547 261.396 119.233 261.459 112.4 260.053C107.332 258.423 103.326 255.547 99.7168 251.705C99.2862 250.817 98.8556 249.929 98.412 249.014C96.3144 246.261 95.4416 246.404 92.0744 245.895C85.0442 244.814 80.78 241.447 76.4788 235.988C73.7995 231.22 72.6117 227.719 72.6886 222.227C72.695 221.216 72.7014 220.204 72.708 219.162C72.875 216.479 72.875 216.479 73.8692 213.543C73.1323 213.44 72.3954 213.336 71.6362 213.23C66.9497 212.091 64.0131 209.295 60.9453 205.715C57.679 199.768 55.5265 192.893 56.9688 186.145C58.1495 183.508 59.4542 181.049 60.9492 178.572C62.1523 175.884 62.0086 175.147 60.9453 172.445C60.359 171.045 60.359 171.045 59.7609 169.617C54.7179 157.455 53.7292 144.734 58.9571 132.326C64.5737 120.743 71.6819 113.657 83.8106 108.842C84.4667 108.842 85.1228 108.842 85.7988 108.842C85.9834 108.176 86.1679 107.51 86.3581 106.824C90.7024 98.0855 99.7231 93.5076 108.61 90.1086C116.509 87.9312 124.395 88.4221 131.626 92.2338Z" fill="#1a6c76"/>
<path d="M96.2972 350.155C97.2483 350.15 98.1994 350.145 99.1793 350.14C102.319 350.127 105.458 350.135 108.598 350.145C110.783 350.143 112.968 350.14 115.154 350.137C119.732 350.132 124.311 350.139 128.89 350.152C134.754 350.169 140.619 350.16 146.483 350.142C150.996 350.131 155.508 350.135 160.021 350.142C162.183 350.144 164.345 350.142 166.507 350.135C169.532 350.128 172.555 350.139 175.58 350.155C176.471 350.149 177.362 350.143 178.28 350.137C183.325 350.188 186.805 350.719 191.178 353.471C193.316 355.779 194.115 357.335 194.253 360.466C193.92 365.398 193.012 368.614 189.189 372.063C184.561 374.525 180.021 374.309 174.897 374.304C173.499 374.314 173.499 374.314 172.074 374.324C168.999 374.342 165.924 374.346 162.849 374.348C160.708 374.355 158.567 374.361 156.427 374.368C151.942 374.38 147.456 374.383 142.971 374.382C137.227 374.382 131.483 374.409 125.739 374.442C121.318 374.464 116.898 374.468 112.478 374.467C110.36 374.469 108.242 374.478 106.125 374.493C103.162 374.512 100.2 374.507 97.2375 374.495C95.9288 374.511 95.9288 374.511 94.5937 374.528C89.2019 374.474 86.0778 373.674 81.8222 370.105C79.1875 366.129 78.2266 363.091 78.8398 358.363C82.4062 350.419 88.3979 350.103 96.2972 350.155Z" fill="#1a6c76"/>
<path d="M137.64 255.644C140.15 256.323 140.15 256.323 142.209 257.995C142.462 259.493 142.462 259.493 142.456 261.338C142.459 262.037 142.462 262.735 142.465 263.455C142.457 264.223 142.45 264.991 142.442 265.782C142.443 266.589 142.443 267.397 142.443 268.228C142.442 270.906 142.426 273.584 142.41 276.261C142.406 278.114 142.403 279.967 142.401 281.82C142.393 286.704 142.373 291.588 142.35 296.472C142.329 301.453 142.32 306.434 142.309 311.415C142.287 321.193 142.252 330.972 142.209 340.75C138.811 340.75 135.414 340.75 131.914 340.75C131.842 330.003 131.787 319.257 131.754 308.51C131.737 303.521 131.716 298.531 131.681 293.541C131.647 288.728 131.629 283.915 131.621 279.102C131.615 277.264 131.604 275.425 131.587 273.586C131.565 271.016 131.562 268.447 131.563 265.877C131.552 265.112 131.541 264.347 131.529 263.559C131.534 262.859 131.538 262.16 131.542 261.439C131.539 260.831 131.536 260.223 131.534 259.596C132.24 256.618 133.965 255.426 137.64 255.644Z" fill="#1a6c76"/>
<path d="M60.008 19.7969C62.9051 20.1471 62.9051 20.1471 64.7521 22.2458C65.2806 23.1475 65.788 24.0614 66.2755 24.9851C66.5359 25.441 66.7963 25.897 67.0646 26.3667C67.7735 27.6085 68.4662 28.8591 69.1574 30.1104C69.9311 31.2485 69.9311 31.2485 70.7204 32.4097C70.9767 34.822 71.0979 36.3705 69.8412 38.493C68.3759 39.3073 68.3759 39.3073 66.2053 39.3672C62.4043 38.1202 61.3226 35.5909 59.4371 32.266C59.0789 31.6865 58.7208 31.1071 58.3518 30.5101C56.7149 27.7186 55.8445 26.1137 55.9904 22.8386C56.8912 20.2211 56.8912 20.2211 60.008 19.7969Z" fill="#1a6c76"/>
<path d="M270.517 74.7378C272.139 76.2772 272.139 76.2772 272.697 78.3939C272.034 81.3664 271.511 81.611 268.945 83.2526C267.585 84.0207 266.215 84.7741 264.837 85.5136C263.863 86.094 263.863 86.094 262.869 86.6862C258.14 89.4156 258.14 89.4156 255.393 89.1727C253.479 88.5924 253.479 88.5924 251.856 87.053C251.77 84.5004 251.77 84.5004 252.667 81.6651C254.527 79.995 256.633 78.9621 258.904 77.8647C259.479 77.5586 260.054 77.2525 260.646 76.9372C264.01 75.2252 266.61 74.1988 270.517 74.7378Z" fill="#1a6c76"/>
<path d="M4.02285 74.5938C7.58146 74.9797 10.1074 76.2896 13.1991 77.976C13.7695 78.2582 14.3399 78.5405 14.9275 78.8313C16.5399 79.6999 17.8866 80.5027 19.2248 81.7361C20.5138 86.1428 20.5138 86.1428 19.1758 88.5899C16.8546 89.7538 15.4715 89.2027 12.9542 88.5899C10.8232 87.582 8.83423 86.3899 6.83054 85.163C6.29755 84.8459 5.76456 84.5288 5.21543 84.2021C1.35872 81.8934 1.35872 81.8934 0.41296 80.9746C0.265993 78.7376 0.265993 78.7376 0.41296 76.4054C1.98061 74.8823 1.98061 74.8823 4.02285 74.5938Z" fill="#1a6c76"/>
<path d="M212.655 19.7969C215.372 20.303 215.372 20.303 217.025 22.5892C216.839 26.6781 214.953 29.6879 212.736 33.1156C212.426 33.6339 212.117 34.1521 211.798 34.686C210.103 37.3283 209.396 38.4052 206.124 39.3672C203.795 39.3553 203.795 39.3553 202.245 38.5456C200.865 36.3558 201.028 35.0239 201.315 32.4964C202.341 30.2288 203.677 28.1945 205.087 26.1139C205.433 25.553 205.779 24.992 206.135 24.4141C208.801 20.4319 208.801 20.4319 212.655 19.7969Z" fill="#1a6c76"/>
<path d="M136.005 0.226562C138.549 0.424416 138.549 0.424416 140.245 2.00725C140.464 3.9054 140.464 3.9054 140.47 6.2611C140.472 7.10581 140.474 7.95052 140.477 8.82083C140.47 9.70635 140.463 10.5919 140.457 11.5042C140.463 12.3897 140.47 13.2753 140.477 14.1876C140.474 15.0323 140.472 15.877 140.47 16.7473C140.468 17.5247 140.466 18.3021 140.464 19.103C140.245 21.0012 140.245 21.0012 138.549 22.584C136.005 22.7819 136.005 22.7819 133.46 22.584C131.248 20.5195 131.546 19.6199 131.539 16.7473C131.537 15.9026 131.535 15.0579 131.533 14.1876C131.542 12.8593 131.542 12.8593 131.552 11.5042C131.546 10.6187 131.539 9.73319 131.533 8.82083C131.535 7.97612 131.537 7.13141 131.539 6.2611C131.541 5.48372 131.543 4.70634 131.545 3.9054C131.89 0.917892 132.874 0.470014 136.005 0.226562Z" fill="#1a6c76"/>
</g>
<defs>
<clipPath id="clip0_25_31">
<rect width="273" height="375" fill="white"/>
</clipPath>
</defs>
</svg>
